<svg xmlns="http://www.w3.org/2000/svg" xml:space="preserve" x="0" y="0" version="1.1" viewBox="0 0 272 64"><path d="M3.3 0h120l12.9 12.9v44.4h129.1V14.6l-7.9-7.9H139.5L132.8 0h127.4l1 1 9.9 9.9 1 1V64H11.8l-1-1L1 53.1l-1-1V0h3.3zm158.2 35 1.7 1.3c-.8 1.5-1.8 2.6-3.2 3.4-1.3.8-2.9 1.2-4.6 1.2-2.5 0-4.6-.8-6.3-2.5-1.7-1.7-2.5-3.8-2.5-6.4 0-2.6.8-4.7 2.5-6.4 1.7-1.7 3.8-2.5 6.3-2.5 1.6 0 3 .3 4.3 1 1.3.7 2.3 1.7 3.1 2.9l-1.8 1.3c-.5-1-1.3-1.8-2.3-2.4-1-.6-2.1-.9-3.4-.9-1.9 0-3.5.7-4.7 2-1.3 1.3-1.9 3-1.9 5s.6 3.7 1.9 5c1.3 1.3 2.8 2 4.7 2 1.3 0 2.5-.3 3.5-1 1.1-.7 2-1.7 2.7-3zm13.6 5.5V32l-7.6-8.5h2.6l6.1 6.7 6-6.7h2.7l-7.7 8.5v8.5h-2.1zm17.5-10.3h8.1c.9 0 1.6-.2 2-.6.5-.4.7-1 .7-1.8s-.2-1.4-.7-1.8c-.5-.4-1.1-.6-2.1-.6h-8.1v4.8h.1zm0 8.3h8.9c1 0 1.7-.3 2.3-.9.6-.6.8-1.4.8-2.3 0-1-.3-1.8-.8-2.3-.6-.6-1.3-.9-2.3-.9h-8.9v6.4zm-2.1 2v-17h10c1.7 0 2.9.4 3.8 1.1.9.7 1.3 1.8 1.3 3.2 0 .7-.1 1.3-.4 1.8-.3.5-.6 1-1.1 1.3.9.5 1.6 1.2 2 1.9.5.8.7 1.6.7 2.6 0 1.6-.5 2.8-1.5 3.7-1 .9-2.4 1.4-4.2 1.4h-10.6zm25.1 0v-17H229v2h-11.2v5h6.8v2h-6.8v6.2h11.9v2h-14.1v-.2zm23.8-9.5h7.5c1.1 0 1.9-.2 2.4-.7.5-.5.8-1.2.8-2.1 0-.9-.3-1.6-.8-2.1s-1.3-.7-2.3-.7h-7.6V31zm-2.1 9.5v-17h9.7c1.7 0 3 .4 3.9 1.3.9.8 1.4 2 1.4 3.5 0 1.2-.4 2.3-1.1 3.2-.7.9-1.7 1.4-2.9 1.6l4.2 7.5h-2.3L246 33h-6.6v7.5h-2.1zm-126.9 0v.8h14.8v-3.6h-11.1V22.6h-3.7v17.9zm-25.5-.4-.6 1.2h4.1l.2-.5 2-4.1H99l2.1 4.1.2.5h4.1l-.6-1.2-8.4-17-.2-.5h-2.8l-.2.5-8.3 17zm7.5-7 2.4-4.9 2.4 4.9h-4.8zm-19.8 7.4v.8h3.7v-9l7.5-8.3 1.2-1.4h-4.9l-.2.3-5.4 6.1-5.5-6.1-.2-.3H64l1.2 1.4 7.4 8.3v8.2zm-19.8 1.2c1.4 0 2.6-.2 3.8-.7 1.2-.5 2.2-1.2 3.1-2.1.9-.9 1.6-2 2.1-3.1.5-1.2.7-2.4.7-3.8s-.2-2.7-.7-3.8c-.5-1.2-1.1-2.2-2.1-3.1-.9-.9-2-1.6-3.1-2.1-1.2-.5-2.4-.7-3.8-.7s-2.6.2-3.8.7c-1.2.5-2.2 1.2-3.1 2.1-.9.9-1.6 2-2.1 3.1-.5 1.2-.7 2.5-.7 3.8 0 1.4.2 2.7.7 3.8.5 1.2 1.1 2.2 2 3.1.9.9 1.9 1.6 3.1 2.1 1.3.5 2.5.7 3.9.7zm0-3.6c-.8 0-1.6-.1-2.3-.4-.7-.3-1.3-.7-1.8-1.3-.5-.6-1-1.2-1.2-1.9-.4-.8-.5-1.6-.5-2.5 0-.9.1-1.7.4-2.5.3-.7.7-1.4 1.2-2 .5-.6 1.2-1 1.8-1.3.7-.3 1.5-.4 2.3-.4.9 0 1.6.1 2.3.4.7.3 1.3.7 1.8 1.3.5.6 1 1.2 1.2 2 .3.7.4 1.6.4 2.5 0 .9-.1 1.7-.4 2.5-.3.7-.7 1.4-1.2 1.9-.5.6-1.2 1-1.8 1.3-.6.3-1.4.4-2.2.4zM21 40.5v.8h3.8v-7.4h5.3l4 7 .2.4h4.2l-.7-1.2-3.7-6.6c.3-.1.5-.2.8-.4.6-.3 1.1-.7 1.5-1.3.9-1 1.3-2.3 1.3-3.7 0-.8-.1-1.6-.4-2.3-.3-.7-.7-1.3-1.3-1.8-.6-.5-1.2-.9-2-1.1-.7-.2-1.6-.4-2.5-.4H21v18zm3.8-10.3v-4h6.8c.4 0 .8 0 1.1.1.3.1.5.2.7.4.2.2.3.4.4.6.1.2.1.5.1.9s0 .7-.1.9c-.1.2-.2.4-.4.5-.4.3-1 .5-1.9.5h-6.7v.1z" fill="#ffffff"/></svg>